<svg xmlns="http://www.w3.org/2000/svg" width="180" height="50"><path d="M168.911 31.538h1.087c1.81 0 2.444-.543 2.444-2.082V18.549c0-2.444-1.403-4.164-3.983-4.164-2.76 0-5.069 2.127-5.069 5.34v9.73c0 1.54.634 2.083 2.444 2.083h1.086v1.81h-11.224v-1.81h1.086c1.811 0 2.444-.543 2.444-2.082v-10.41c0-2.941-1.72-4.661-4.3-4.661-2.172 0-4.75 2.625-4.75 7.332v7.739c0 1.539.632 2.082 2.443 2.082h1.086v1.81H142.12v-1.81h1.448c1.81 0 2.444-.543 2.444-2.082V15.878c0-1.086-.679-1.267-2.173-1.267h-1.719V12.8l8.056-.453v3.847h.09c2.037-3.756 4.752-4.526 6.472-4.526 3.258 0 5.567 1.992 6.2 4.617 2.037-3.35 4.3-4.617 7.061-4.617 2.941 0 6.607 2.85 6.607 7.287v10.5c0 1.539.634 2.082 2.444 2.082h.95v1.81h-11.089v-1.81zM10.273 13.48c-2.444 0-4.525 1.493-4.525 5.612s2.081 5.612 4.525 5.612c2.444 0 4.526-1.493 4.526-5.612 0-4.12-2.082-5.612-4.526-5.612zm1.404 20.32c-1.72 0-3.395.09-5.115.227-2.172 1.04-2.942 2.354-2.942 3.666 0 1.856 1.584 3.123 7.287 3.123 4.887 0 6.88-2.218 6.88-3.983 0-1.992-1.449-3.032-6.11-3.032zm2.081-3.53c4.843 0 7.015 1.946 7.015 5.115 0 4.616-3.71 7.24-10.228 7.24C2.806 42.626 0 40.816 0 37.694c0-1.72 2.172-3.666 4.48-3.892v-.091c-2.172-.452-3.44-1.946-3.44-4.118 0-1.946 1.087-3.666 4.481-4.435v-.091c-2.67-1.086-3.937-3.26-3.937-6.155 0-4.888 4.435-7.242 8.78-7.242 2.127 0 4.073.408 5.793 1.72 1.493-1.584 3.168-2.398 4.39-2.398 1.403 0 2.942.859 2.942 2.444 0 1.267-.86 2.172-1.902 2.172-2.534 0-1.9-2.263-2.67-2.263-.452 0-1.086.498-1.629 1.177 1.267 1.086 1.675 2.806 1.675 4.39 0 5.204-4.254 7.377-9.052 7.377-5.205 0-5.884 1.04-5.884 1.99 0 1.314.498 1.993 2.761 1.993h6.97zm24.984 1.946c2.85 0 5.159-2.217 5.159-9.368s-2.308-9.368-5.16-9.368c-2.85 0-5.158 2.217-5.158 9.368s2.308 9.368 5.159 9.368m0-20.547c6.2 0 9.776 4.933 9.776 11.179 0 6.245-3.576 11.179-9.776 11.179-6.2 0-9.776-4.934-9.776-11.179 0-6.246 3.576-11.179 9.776-11.179zm16.702.679c4.797-.317 5.748-5.34 6.02-9.142h1.81v9.142h6.743v2.037h-6.744v13.442c0 2.217.725 3.485 2.806 3.485 2.897 0 3.531-3.848 3.531-6.11h1.81c-.046 5.657-2.037 8.825-6.879 8.825-2.987 0-5.432-2.037-5.432-4.888V14.385h-3.665v-2.037zm37.837 19.19h1.267c1.811 0 2.444-.543 2.444-2.082v-10.41c0-2.941-1.72-4.661-4.164-4.661-3.439 0-6.019 2.625-6.019 6.38v8.69c0 1.54.634 2.083 2.444 2.083h1.267v1.81H78.934v-1.81h1.267c1.811 0 2.444-.543 2.444-2.082V3.523c0-1.086-.678-1.267-2.172-1.267h-2.082V.445l8.418-.452v16.202h.091c1.764-3.394 4.751-4.526 7.331-4.526 4.255 0 6.925 3.576 6.925 8.102v9.685c0 1.539.634 2.082 2.444 2.082h1.267v1.81H93.281v-1.81zm32.95-9.369c-7.83 1.086-9.866 2.716-9.866 6.065 0 2.172 1.765 3.53 3.8 3.53 2.808 0 6.066-2.263 6.066-5.974v-3.621zm0-4.254c0-2.897-1.267-4.209-4.888-4.209-3.032 0-4.208.905-4.208 1.538 0 .498.995 1.54.995 2.58 0 1.584-1.086 2.218-2.534 2.218-1.63 0-2.4-1.313-2.4-2.851 0-2.806 3.35-5.522 8.826-5.522 5.838 0 8.373 2.082 8.373 6.925 0 2.262-.136 8.689-.136 10.409 0 .814.634 2.082 1.674 2.082 1.223 0 1.539-.543 1.992-.543.453 0 .589.226.589.769 0 .679-1.675 2.489-4.03 2.489-2.307 0-3.438-1.177-4.027-3.394-1.991 2.398-5.07 3.621-8.146 3.621-3.394 0-6.336-1.585-6.336-5.386 0-4.254 5.43-7.106 14.256-8.283v-2.443zm14.693 28.027c.786 0 1.203-.341 1.203-.975 0-.616-.417-.938-1.184-.938h-.379v1.913h.36zm3.021 3.41h-1.515l-1.705-2.538h-.16v2.538h-1.233v-6.318h1.83c1.42 0 2.234.683 2.234 1.867 0 .966-.512 1.6-1.44 1.79l1.99 2.661zM38.393 44.474c-.322-.36-.625-.511-.994-.511-.53 0-.919.303-.919.7 0 .342.218.522.957.796 1.401.512 1.818.966 1.818 1.97 0 1.222-.9 2.075-2.178 2.075-.938 0-1.62-.37-2.188-1.203l.795-.767c.284.549.758.843 1.345.843.55 0 .957-.38.957-.891 0-.265-.123-.492-.37-.653-.123-.076-.369-.19-.852-.36-1.155-.417-1.553-.862-1.553-1.733 0-1.033.852-1.81 1.97-1.81.691 0 1.326.237 1.856.7l-.644.844zm4.662 4.878v-5.248h-1.41v-1.07h4.062v1.07h-1.42v5.248h-1.232zm7.002-5.248v1.402h2.178v1.071h-2.178v1.705h2.264v1.07h-3.495v-6.318h3.495v1.07h-2.264zm8.005.645l-.919 2.273h1.8l-.88-2.273zm-1.316 3.268l-.569 1.335H54.87l2.737-6.45h.93l2.651 6.45h-1.317l-.54-1.335h-2.585zm10.487-4.983h1.553l-2.67 2.917 2.812 3.401H67.31l-2.245-2.842-.152.152v2.69h-1.23v-6.318h1.23v2.672l2.321-2.672zm8.243 2.444v-2.444h1.23v6.318h-1.23V46.55h-2.671v2.803h-1.232v-6.318h1.232v2.444h2.67zm5.334.71c0 1.203.947 2.178 2.112 2.178 1.156 0 2.103-.975 2.103-2.178 0-1.193-.937-2.168-2.103-2.168-1.165 0-2.112.975-2.112 2.168m5.484 0c0 1.857-1.487 3.306-3.372 3.306-1.913 0-3.38-1.43-3.38-3.287s1.486-3.316 3.38-3.316c1.895 0 3.372 1.45 3.372 3.297zm4.028.465c0 .644.038.853.2 1.127.207.36.634.587 1.107.587.474 0 .9-.227 1.11-.587.16-.274.197-.483.197-1.127v-3.618h1.231v3.864c0 .739-.14 1.26-.463 1.686-.436.569-1.213.91-2.075.91-.862 0-1.638-.341-2.074-.91-.322-.426-.464-.947-.464-1.686v-3.864h1.231v3.618zm10.09-2.18c-.322-.36-.625-.51-.995-.51-.53 0-.92.303-.92.7 0 .342.22.522.958.796 1.402.512 1.819.966 1.819 1.97 0 1.222-.9 2.075-2.178 2.075-.938 0-1.62-.37-2.19-1.203l.797-.767c.284.549.758.843 1.345.843.55 0 .957-.38.957-.891 0-.265-.124-.492-.37-.653-.123-.076-.37-.19-.852-.36-1.156-.417-1.554-.862-1.554-1.733 0-1.033.853-1.81 1.97-1.81.692 0 1.327.237 1.857.7l-.644.844zm5.079-.369v1.402h2.179v1.071h-2.18v1.705h2.265v1.07h-3.495v-6.318h3.495v1.07h-2.264zm11.207.294c0-.378-.265-.625-.663-.625a.596.596 0 0 0-.606.597c0 .256.066.369.549.938.54-.36.72-.588.72-.91zm-1.156 2.093c-.672.446-.89.701-.89 1.033 0 .483.426.881.938.881.35 0 .672-.151 1.146-.54l-1.194-1.374zm2.065.663c.351-.34.549-.567.777-.871l.729.711c-.208.274-.274.35-.824.909l1.279 1.449h-1.525l-.625-.71c-.73.596-1.345.853-2.027.853-1.147 0-1.98-.768-1.98-1.829 0-.407.152-.814.426-1.127.228-.256.19-.228.91-.653.028-.019.095-.057.17-.104-.474-.522-.644-.881-.644-1.327 0-.909.72-1.563 1.724-1.563.985 0 1.724.645 1.724 1.506 0 .616-.351 1.09-1.156 1.563l1.042 1.193zm8.424 1.204c.825 0 1.23-.284 1.23-.852 0-.635-.377-.901-1.296-.901h-.465v1.753h.53zm-.18-2.69c.635 0 .957-.275.957-.824 0-.53-.323-.814-.939-.814h-.368v1.638h.35zm-1.582-2.633h1.563c.73 0 1.222.123 1.544.378.35.276.569.768.569 1.289 0 .625-.19.985-.692 1.278.842.18 1.278.73 1.278 1.582 0 1.118-.805 1.79-2.13 1.79h-2.132v-6.317zm9.388 1.714l-.919 2.273h1.8l-.88-2.273zm-1.317 3.268l-.567 1.335h-1.309l2.738-6.45h.93l2.651 6.45h-1.316l-.54-1.335h-2.587z" fill="#FFF" fill-rule="evenodd"/></svg>