<svg xmlns="http://www.w3.org/2000/svg" width="180" height="126"><path d="M168.911 107.538h1.087c1.81 0 2.444-.543 2.444-2.082V94.549c0-2.444-1.403-4.164-3.983-4.164-2.76 0-5.069 2.127-5.069 5.34v9.73c0 1.54.634 2.083 2.444 2.083h1.086v1.81h-11.224v-1.81h1.086c1.811 0 2.444-.543 2.444-2.082v-10.41c0-2.941-1.72-4.661-4.3-4.661-2.172 0-4.75 2.625-4.75 7.332v7.739c0 1.539.632 2.082 2.443 2.082h1.086v1.81H142.12v-1.81h1.448c1.81 0 2.444-.543 2.444-2.082V91.878c0-1.086-.679-1.267-2.173-1.267h-1.719V88.8l8.056-.453v3.847h.09c2.037-3.756 4.752-4.526 6.472-4.526 3.258 0 5.567 1.992 6.2 4.617 2.037-3.35 4.3-4.617 7.061-4.617 2.941 0 6.607 2.85 6.607 7.287v10.5c0 1.539.634 2.082 2.444 2.082h.95v1.81h-11.089v-1.81zM10.273 89.48c-2.444 0-4.525 1.493-4.525 5.612s2.081 5.612 4.525 5.612c2.444 0 4.526-1.493 4.526-5.612 0-4.12-2.082-5.612-4.526-5.612zm1.404 20.32c-1.72 0-3.395.09-5.115.227-2.172 1.04-2.942 2.354-2.942 3.666 0 1.856 1.584 3.123 7.287 3.123 4.887 0 6.88-2.218 6.88-3.983 0-1.992-1.449-3.032-6.11-3.032zm2.081-3.53c4.843 0 7.015 1.946 7.015 5.115 0 4.616-3.71 7.24-10.228 7.24-7.739 0-10.545-1.81-10.545-4.932 0-1.72 2.172-3.666 4.48-3.892v-.091c-2.172-.452-3.44-1.946-3.44-4.118 0-1.946 1.087-3.666 4.481-4.435v-.091c-2.67-1.086-3.937-3.26-3.937-6.155 0-4.888 4.435-7.242 8.78-7.242 2.127 0 4.073.408 5.793 1.72 1.493-1.584 3.168-2.398 4.39-2.398 1.403 0 2.942.859 2.942 2.444 0 1.267-.86 2.172-1.902 2.172-2.534 0-1.9-2.263-2.67-2.263-.452 0-1.086.498-1.629 1.177 1.267 1.086 1.675 2.806 1.675 4.39 0 5.204-4.254 7.377-9.052 7.377-5.205 0-5.884 1.04-5.884 1.99 0 1.314.498 1.993 2.761 1.993h6.97zm24.984 1.946c2.85 0 5.159-2.217 5.159-9.368s-2.308-9.368-5.16-9.368c-2.85 0-5.158 2.217-5.158 9.368s2.308 9.368 5.159 9.368m0-20.547c6.2 0 9.776 4.933 9.776 11.179 0 6.245-3.576 11.179-9.776 11.179-6.2 0-9.776-4.934-9.776-11.179 0-6.246 3.576-11.179 9.776-11.179zm16.702.679c4.797-.317 5.748-5.34 6.02-9.142h1.81v9.142h6.743v2.037h-6.744v13.442c0 2.217.725 3.485 2.806 3.485 2.897 0 3.531-3.848 3.531-6.11h1.81c-.046 5.657-2.037 8.825-6.879 8.825-2.987 0-5.432-2.037-5.432-4.888V90.385h-3.665v-2.037zm37.837 19.19h1.267c1.811 0 2.444-.543 2.444-2.082v-10.41c0-2.941-1.72-4.661-4.164-4.661-3.439 0-6.019 2.625-6.019 6.38v8.69c0 1.54.634 2.083 2.444 2.083h1.267v1.81H78.934v-1.81h1.267c1.811 0 2.444-.543 2.444-2.082V79.523c0-1.086-.678-1.267-2.172-1.267h-2.082v-1.811l8.418-.452v16.202h.091c1.764-3.394 4.751-4.526 7.331-4.526 4.255 0 6.925 3.576 6.925 8.102v9.685c0 1.539.634 2.082 2.444 2.082h1.267v1.81H93.281v-1.81zm32.95-9.369c-7.83 1.086-9.866 2.716-9.866 6.065 0 2.172 1.765 3.53 3.8 3.53 2.808 0 6.066-2.263 6.066-5.974v-3.621zm0-4.254c0-2.897-1.267-4.209-4.888-4.209-3.032 0-4.208.905-4.208 1.538 0 .498.995 1.54.995 2.58 0 1.584-1.086 2.218-2.534 2.218-1.63 0-2.4-1.313-2.4-2.851 0-2.806 3.35-5.522 8.826-5.522 5.838 0 8.373 2.082 8.373 6.925 0 2.262-.136 8.689-.136 10.409 0 .814.634 2.082 1.674 2.082 1.223 0 1.539-.543 1.992-.543.453 0 .589.226.589.769 0 .679-1.675 2.489-4.03 2.489-2.307 0-3.438-1.177-4.027-3.394-1.991 2.398-5.07 3.621-8.146 3.621-3.394 0-6.336-1.585-6.336-5.386 0-4.254 5.43-7.106 14.256-8.283v-2.443zm14.693 28.027c.786 0 1.203-.341 1.203-.975 0-.616-.417-.938-1.184-.938h-.379v1.913h.36zm3.021 3.41h-1.515l-1.705-2.538h-.16v2.538h-1.233v-6.318h1.83c1.42 0 2.234.683 2.234 1.867 0 .966-.512 1.6-1.44 1.79l1.99 2.661zm-105.552-4.878c-.322-.36-.625-.511-.994-.511-.53 0-.919.303-.919.7 0 .342.218.522.957.796 1.401.512 1.818.966 1.818 1.97 0 1.222-.9 2.075-2.178 2.075-.938 0-1.62-.37-2.188-1.203l.795-.767c.284.549.758.843 1.345.843.55 0 .957-.38.957-.891 0-.265-.123-.492-.37-.653-.123-.076-.369-.19-.852-.36-1.155-.417-1.553-.862-1.553-1.733 0-1.033.852-1.81 1.97-1.81.691 0 1.326.237 1.856.7l-.644.844zm4.662 4.878v-5.248h-1.41v-1.07h4.062v1.07h-1.42v5.248h-1.232zm7.002-5.248v1.402h2.178v1.071h-2.178v1.705h2.264v1.07h-3.495v-6.318h3.495v1.07h-2.264zm8.005.645l-.919 2.273h1.8l-.88-2.273zm-1.316 3.268l-.569 1.335H54.87l2.737-6.45h.93l2.651 6.45h-1.317l-.54-1.335h-2.585zm10.487-4.983h1.553l-2.67 2.917 2.812 3.401H67.31l-2.245-2.842-.152.152v2.69h-1.23v-6.318h1.23v2.672l2.321-2.672zm8.243 2.444v-2.444h1.23v6.318h-1.23v-2.803h-2.671v2.803h-1.232v-6.318h1.232v2.444h2.67zm5.334.71c0 1.203.947 2.178 2.112 2.178 1.156 0 2.103-.975 2.103-2.178 0-1.193-.937-2.168-2.103-2.168-1.165 0-2.112.975-2.112 2.168m5.484 0c0 1.857-1.487 3.306-3.372 3.306-1.913 0-3.38-1.43-3.38-3.287s1.486-3.316 3.38-3.316c1.895 0 3.372 1.45 3.372 3.297zm4.028.465c0 .644.038.853.2 1.127.207.36.634.587 1.107.587.474 0 .9-.227 1.11-.587.16-.274.197-.483.197-1.127v-3.618h1.231v3.864c0 .739-.14 1.26-.463 1.686-.436.569-1.213.91-2.075.91-.862 0-1.638-.341-2.074-.91-.322-.426-.464-.947-.464-1.686v-3.864h1.231v3.618zm10.09-2.18c-.322-.36-.625-.51-.995-.51-.53 0-.92.303-.92.7 0 .342.22.522.958.796 1.402.512 1.819.966 1.819 1.97 0 1.222-.9 2.075-2.178 2.075-.938 0-1.62-.37-2.19-1.203l.797-.767c.284.549.758.843 1.345.843.55 0 .957-.38.957-.891 0-.265-.124-.492-.37-.653-.123-.076-.37-.19-.852-.36-1.156-.417-1.554-.862-1.554-1.733 0-1.033.853-1.81 1.97-1.81.692 0 1.327.237 1.857.7l-.644.844zm5.079-.369v1.402h2.179v1.071h-2.18v1.705h2.265v1.07h-3.495v-6.318h3.495v1.07h-2.264zm11.207.294c0-.378-.265-.625-.663-.625a.596.596 0 0 0-.606.597c0 .256.066.369.549.938.54-.36.72-.588.72-.91zm-1.156 2.093c-.672.446-.89.701-.89 1.033 0 .483.426.881.938.881.35 0 .672-.151 1.146-.54l-1.194-1.374zm2.065.663c.351-.34.549-.567.777-.871l.729.711c-.208.274-.274.35-.824.909l1.279 1.449h-1.525l-.625-.71c-.73.596-1.345.853-2.027.853-1.147 0-1.98-.768-1.98-1.829 0-.407.152-.814.426-1.127.228-.256.19-.228.91-.653.028-.019.095-.057.17-.104-.474-.522-.644-.881-.644-1.327 0-.909.72-1.563 1.724-1.563.985 0 1.724.645 1.724 1.506 0 .616-.351 1.09-1.156 1.563l1.042 1.193zm8.424 1.204c.825 0 1.23-.284 1.23-.852 0-.635-.377-.901-1.296-.901h-.465v1.753h.53zm-.18-2.69c.635 0 .957-.275.957-.824 0-.53-.323-.814-.939-.814h-.368v1.638h.35zm-1.582-2.633h1.563c.73 0 1.222.123 1.544.378.35.276.569.768.569 1.289 0 .625-.19.985-.692 1.278.842.18 1.278.73 1.278 1.582 0 1.118-.805 1.79-2.13 1.79h-2.132v-6.317zm9.388 1.714l-.919 2.273h1.8l-.88-2.273zm-1.317 3.268l-.567 1.335h-1.309l2.738-6.45h.93l2.651 6.45h-1.316l-.54-1.335h-2.587zm-68.514-81.5c.52.332 1.13.688 1.842 1.046l-1.842 5.468v-6.515zm20.268 5.624s4.398 2.858 7.509 4.512c.77.41 1.524.871 2.225 1.332h-2.084c-.671-.39-1.396-.804-2.192-1.25-6.922-3.875-10.325-6.678-10.325-6.678s-3.66-2.459-7.735-8.5c-4.596-6.316-6.694-12.156-7.666-15.97V14.04a8.05 8.05 0 0 1 1.02-1.522s5.686-6.649 11.287-9.692h2.45C72.59 5.412 65.949 13.177 65.949 13.177c-1.783 2.123-1.578 3.68-1.578 3.68s.427 7.484 6.017 17.014c5.59 9.527 13.707 14.27 13.707 14.27zm-2.864 1.104s.14.092.38.245l2.578 4.495h-2.253l-3.161-6.432c1.492 1.129 2.456 1.692 2.456 1.692zm-6.963-3.433c.587.034 1.192.043 1.816.029l2.601 8.144h-2.396l-2.02-8.173zm12.146 6.636c.797.467 1.596.92 2.326 1.309.14.075.278.152.416.228h-1.528l-1.214-1.537zm25.213-.753a18.415 18.415 0 0 1 3.36-3.953v2.307a17.596 17.596 0 0 0-2.775 2.577c-.193-.318-.39-.624-.585-.93zm-.542-7.832c-.246.338-.489.697-.726 1.077-1.003-.94-3.98-3.707-5.904-5.271-.01-.612 0-1.666-.49-2.148.102-.011.4-.016.857-.043l6.263 6.385zm-1.127 5.377c1.382-3.105 3.281-5.261 5.03-6.728v2.669a17.473 17.473 0 0 0-4.374 4.985 57.122 57.122 0 0 0-.656-.926zM96.753 34.057s11.002-.4 17.725-3.85c.17-.086.339-.18.509-.272v1.079c-4.5 2.083-9.798 3.468-16.02 3.705l1.538 1.046s6.895.213 14.482-3.284v1.388c-3.491 1.636-7.766 2.837-12.896 2.939.523.33 1.017.858 1.156 1.41.16.643.019 2.01.019 2.01s2.45 2.51 6.363 5.993a17.878 17.878 0 0 0-.722 1.618c-3.472-4.465-6.65-7.072-6.65-7.072.029-.708.439-2.387-.28-3.033-.713-.65-5.224-3.677-5.224-3.677zm15.427 1.962a30.217 30.217 0 0 0 1.62-.604l1.186 3.75v.83c-.13.093-.267.19-.415.301l-2.39-4.277zm1.025 5.427c-.257.242-.523.515-.792.803l-4.504-5.136a30.364 30.364 0 0 0 1.865-.395l3.43 4.728zM65.94 9.711c-.328.34-.623.65-.876.924l-1.238-.718V8.283l2.114 1.428zm3.623-3.45c-.333.292-.657.58-.971.869l-2.926-4.304h1.674l2.223 3.436zm1.122 39.075c.547.12 1.124.218 1.718.3l.792 8.349h-2.216l-.294-8.65zm1.103-4.39c-4.188-1.814-6.654-4.6-7.962-6.56v-3.557c.837 2.077 2.721 5.669 6.423 8.208a43.49 43.49 0 0 0 1.54 1.909zm-.215-36.338c-.353.273-.7.552-1.042.833l-1.189-2.615h1.507l.724 1.782zm2.106 38.42c.444.46.882.891 1.31 1.3-5.368-.665-9.002-2.824-11.163-4.603v-2.107c1.69 1.85 4.86 4.464 9.852 5.41zm-6.381 1.262a22.45 22.45 0 0 0 1.61.569l-1.04 9.126H65.56l1.737-9.695zm.373-36.298c-.295.28-.577.557-.844.822l-3-2.748V3.818l3.844 4.174zm20.402-.268c-2.353.636-5.642-.794-6.225-.95-2.553 4.724-7.638 8.928-8.706 9.66 2.432-2.099 8.212-9.99 8.487-10.594 2.405 1.497 6.444 1.884 6.444 1.884zM94.769 9.7s-1.157-1.458-2.862-2.628c0 0 .387-.109.687-.205.282-.095.447-.189.806-.232 0 0 1.206 1.347 1.382 2.451.128.801-.013.614-.013.614zm-14.17 16.259l.67-.37.046 4.003-.715-3.634zm26.59-5.438c-4.539.925-8.742-.21-8.742-.21l.145-.922c1.948.983 7.424 1.268 8.596 1.132zm-19.57-3.812c1.125-2.788 4.273-3.88 4.273-3.88s-.174-.158-.313-.256c-2.766.63-4.574 3.191-4.926 3.727.166-3.014 2.64-4.946 2.64-4.946s-.15-.057-.365-.11c-2.41 1.787-3.309 4.678-3.36 4.85-.436-3.158 1.144-5.122 1.144-5.122s-.215 0-.406.017c-2.023 2.225-1.98 4.75-1.96 5.143l-.009.001c-1.193-2.446.047-4.767.047-4.767s-.189.053-.383.14c-1.11 2.192-.755 4.471-.679 4.88-1.385-1.935-.853-4.002-.853-4.002s-.14.105-.268.223c-.606 1.95-.006 3.71.17 4.152-1.436-1.403-1.35-2.777-1.35-2.777s-.118.193-.222.395c-.27 1.56.418 2.585.71 2.941-.337.26-.596.516-.79.726-1.638-3.143 1.037-7.582 5.876-7.72 4.84-.138 6.96 3.806 6.96 3.806-3.848.701-5.703 2.727-5.703 2.727s-.082-.06-.233-.148zm.43.685c2.517-2.372 5.198-2.669 5.733-2.772.41.41.553 1.101.553 1.101-4.316 0-6.272 2.556-6.272 2.556-1.75-1.516-3.259-1.597-4.739-.829-1.787.93-1.787 2.897-1.672 3.516.12.658.821 2.337 2.842 2.507 1.292.108 2.19-.475 2.71-1.273.49 1.09-.083 3.12-2.91 3.111-3.017-.277-3.64-2.595-3.64-2.595s-1.046-2.886 1.35-5.079c2.6-2.377 5.4-.668 6.044-.243zM79.57 18.89c-1.896 3.722.551 5.469.551 5.469s-1.552-.098-2.02-1.871c-.468-1.776.643-3.325.761-3.55-1.33-3.19.03-5.32.231-5.52-1.009 2.724.322 5.15.477 5.472m14.288-7.863c-3.496-2.973-7.7-2.372-7.7-2.372s-5.45.287-7.848 5.158c-1.184 3.025-.07 5.179-.07 5.179s-1.683 1.878-.672 4.41c.96 2.405 3.624 2.238 3.906 1.327-.337-.268-2.756-1.782-1.309-5.9-.424-1.164-2.602-4.623 1.621-7.677 4.253-3.066 8.88-1.06 8.88-1.06s6.697 1.986 4.823 11.537c0 0 2.718-7.002-1.63-10.602m-.686 10.997c-.108-.13-1.381-1.842-4.502-.355.61-.46 1.434-1.34 2.903-1.357 1.474-.02 2.15.592 2.284.858 0 0-.22.544-.685.854m-.391 1.118c-.004.4.048.546.109.658-1.877-.903-2.695-2.17-2.695-2.17.94.245 1.836.277 2.314.595.429.283.273.518.272.917M95.6 42.147c-2.606 1.675-4.523 1.59-6.44.41-.91-.56-2.627-2.569-2.627-2.569 4.734 3.684 8.574 2.271 9.067 2.16m9.908-16.892c2.619-.157 5.6-.888 9.478-3.495v6.111a15.84 15.84 0 0 1-1.088.46s-7.844 2.826-16.357 1.947c.028-.399.742-1.439.742-1.439h-.22c-.301.303-2.538 2.258-2.68 5.811.23.121 3.43 2.197 3.88 2.957.637 1.071.244 2.604.199 3.391 0 0 6.133 5.337 10.41 12.986H97.63a129.458 129.458 0 0 0-4.773-2.793c-6.923-3.874-10.327-6.677-10.327-6.677s-3.66-2.457-7.733-8.5c-7.527-10.343-8.363-19.428-8.505-20.392-.144-.966.207-1.999 1.173-3.045 5.047-6.362 11.635-8.748 14.5-9.415 2.748-.637 5.113 1.448 5.113 1.448s1.199 1.02 3.552.754c4.384-.416 5.104.61 5.324.793.22.184.144.216.064.162-1.825-.625-3.458-.162-3.458-.162s-2.497 1.015-5.23.782c-2.733-.239-5.012-1.82-5.23-1.985-.055-.043-.604-.496-1.297.528-1.562 2.736-8.47 10.214-8.794 10.705 2.892 4.97 5.24 9.98 6.538 14.294 0 0 .214 1.145 1.472 3.045 1.193 1.798 2.825 2.763 2.825 2.763-1.742-1.983-2.662-3.413-3.437-6.42 2.625-.224 5.62 3.684 5.62 3.684l.128-.163c-1.765-3.709-1.355-6.046-1.355-6.046s1.009.23 2.18-.238c.363 1.224 1.178 3.263 2.828 4.578.197.222 1.829 1.223 3.029-.302 0 0 .875-.906 2.356-4.4-.482.406-1.69.265-1.69.265s-.094.253-.057.316c.038.062.214.327.209.385-.007.06-.034.3-.475.367a.552.552 0 0 1 .055.37c-.037.151-.055.351-.468.351-.041.036-.26.092-.27.306-.017.361.107.6.083.925-.035.497-.795.683-1.32.548-.486-.128-1.544-.152-3.967-3.849a4.146 4.146 0 0 0 1.055-.749c1.507-1.458.386-3.654.012-4.286.182-.347.302-.72.357-1.09.205-1.368-.592-2.274-1.568-2.469-.98-.193-1.847.085-2.398.83-.553.742-.275 2.316.924 2.426 1.198.108 1.254-.842 1.254-.842s-1.076.563-1.634-.279c-.56-.842.29-1.505.832-1.689.419-.143 2.122-.31 2.283 1.6-.05 1.871-1.785 2.282-2.548 2.233-.675-.009-2.314-.492-2.303-2.33.008-1.829 1.108-2.476 1.736-2.706.629-.233 2.074-.613 3.77 1.311 0 0 2.873-3.205 6.392-2.495.058.152.33 1.682-.1 3.575-.43 1.897-1.551 4.698-.358 6.121-.043-.294-.186-.973-.028-1.583 1.326-.646 4.126-.13 4.126-.13s4.269 1.028 7.412.841zm-6.355-15.13c-1.558-.077-2.444-1.534-2.378-2.788a3.303 3.303 0 0 1 2.912-3.054c1.899-.25 3.283.92 3.75 1.723.489.834 1.033 3.041-.411 4.767-1.51 1.806-4.096 1.483-4.096 1.483s-1.715.027-3.15-1.798c0 0 2.335 1.82 4.91.671 1.804-.9 1.658-2.623 1.658-2.623s.186-2.525-2.352-2.623c-1.822.11-1.801 1.355-1.801 1.355s.02.272.33.31c.313.041.432-.188.392-.362a.733.733 0 0 1 .508-.854 1.554 1.554 0 0 1 1.843.704s.51.678.254 1.673c-.221.865-.81 1.496-2.37 1.416zm11.467-5.891c1.041-.06 2.877.277 4.365 1.317v8.013c-.123.228-.26.456-.422.687-2.868 4.074-9.617 3.007-11.433 2.848 5.758 2.243 10.311.037 11.393-.894 0 0 .194-.151.462-.433v1.244c-1.88 1.58-4.794 2.776-9.935 1.712-3.447-.712-5.617-3.014-6.616-4.34 1.412.735 5.538 2.573 10.273 1.774 5.857-.986 5.868-4.873 5.842-6.133-.035-1.777-1.31-3.393-3.74-3.395-2.423 0-2.868 2.005-2.924 2.826-.066.966.305 2.239 1.727 2.43 1.372.185 1.416-.77 1.045-.873-1.543.3-2.023-.51-2.023-1.64 0-1.132.846-2.007 2.175-2.024 1.502-.016 2.945 1.128 2.934 3.042-.012 2.082-1.19 4.008-3.978 3.967a5.053 5.053 0 0 1-.706-.066c-.288-.064-1.873-.463-2.9-1.744l-.066-.088c-.653-.858-1.052-2.095-.675-3.864.832-3.896 3.6-4.283 5.202-4.367zm-12.524 17.79s6.852.967 11.24-.599c2.58-.923 4.26-2.062 5.65-3.326v1.603c-3.88 2.575-6.86 3.21-9.478 3.367-3.143.187-7.412-1.046-7.412-1.046zM62.228 55.582h54.357V1.227H62.228v54.356zM61 56.81h56.813V-.001H61V56.81z" fill="#FFF" fill-rule="evenodd"/></svg>